<svg xmlns="http://www.w3.org/2000/svg" xmlns:xlink="http://www.w3.org/1999/xlink" viewBox="0 0 286.54 286.54"><defs><style>.cls-1{fill:url(#linear-gradient);}.cls-2{fill:#fff;}.cls-3{opacity:0.05;}</style><linearGradient id="linear-gradient" x1="230.05" y1="11.44" x2="56.46" y2="275.14" gradientUnits="userSpaceOnUse"><stop offset="0" stop-color="#6e15ff"/><stop offset="1" stop-color="#0e75ff"/></linearGradient></defs><title>Asset 6</title><g id="Layer_2" data-name="Layer 2"><g id="Layer_1-2" data-name="Layer 1"><path class="cls-1" d="M286.54,143.27A143.38,143.38,0,0,1,121,284.82l-.27,0a141.43,141.43,0,0,1-15.07-3.22l-.19-.05A143.29,143.29,0,1,1,286.54,143.27Z"/><path class="cls-2" d="M161.66,129.51l3.28.58a75.93,75.93,0,0,0,8.2.63,77.42,77.42,0,0,0,11.87-.36,63.48,63.48,0,0,0,13-3.05,46.88,46.88,0,0,0,13-6.61,41.45,41.45,0,0,0,10.44-11.92A50.84,50.84,0,0,0,228,90.64a67.8,67.8,0,0,0-16.43-6.28,42.37,42.37,0,0,0-14.12-1.11,46.41,46.41,0,0,0-11.78,2.91,35.23,35.23,0,0,0-9.79,5.74,84.13,84.13,0,0,0-7.69,7.34,47.5,47.5,0,0,0-5.8,7.7q-2.29,3.89-4,7a33.46,33.46,0,0,0-2.34,5.11l-.76,1.92c-.36.22-1.91,1.63-4.65,4.21s-4.87,4.66-6.37,6.19a20.67,20.67,0,0,0,.81-2.48q.43-1.61,1.29-6.42a63.54,63.54,0,0,0,.94-9.51,59.72,59.72,0,0,0-1.05-11.15,46.88,46.88,0,0,0-3.78-12.06,43,43,0,0,0-8.24-11.36,54,54,0,0,0-13.48-9.93,65.57,65.57,0,0,0-11,14,42.59,42.59,0,0,0-5.18,13.42,46.57,46.57,0,0,0-.53,12.39A35.25,35.25,0,0,0,107,119.54a84.11,84.11,0,0,0,5,9.68,50.79,50.79,0,0,0,6,8.05c2.13,2.31,4.08,4.32,5.85,6a50.81,50.81,0,0,0,4.38,3.82l1.71,1.28a185.32,185.32,0,0,0-19.35,30.73,31.31,31.31,0,0,0,.14-3.2q0-2.07-.51-8a80.85,80.85,0,0,0-1.87-11.48,64.2,64.2,0,0,0-4.69-12.58,51,51,0,0,0-8.21-12.32,47.13,47.13,0,0,0-13.13-9.65,56.83,56.83,0,0,0-18.69-5.78,73.55,73.55,0,0,0-6,18.64,46.21,46.21,0,0,0-.23,15.77,49.16,49.16,0,0,0,4.24,12.91A38.78,38.78,0,0,0,69,173.87a101.34,101.34,0,0,0,9,8,51.62,51.62,0,0,0,9.36,5.94q4.73,2.3,8.42,3.93a39.37,39.37,0,0,0,6,2.24l2.35.69q-11,29.66-7.79,56.83a82.43,82.43,0,0,0,9.24,30l.19.05a141.43,141.43,0,0,0,15.07,3.22,69.38,69.38,0,0,1-13.43-33.15q-3.12-22.59,5.17-47.85a72.7,72.7,0,0,0,4.06,8.47,65.61,65.61,0,0,0,5.9,8.61,48.44,48.44,0,0,0,8,8,44.1,44.1,0,0,0,10.51,6,46.77,46.77,0,0,0,13.18,3.28,59.29,59.29,0,0,0,16.24-.89,100.2,100.2,0,0,0,19.55-5.72,95.31,95.31,0,0,0-13.1-24.21q-7.63-9.88-15-14.49a48.77,48.77,0,0,0-15.72-6.43A53.36,53.36,0,0,0,131.62,185a71.69,71.69,0,0,0-12.23,1.88,168.62,168.62,0,0,1,19.55-32l1.32,1.84c.53.74,1.78,2.22,3.74,4.41s3.94,4.28,6,6.24a76.71,76.71,0,0,0,7.86,6.51,68.21,68.21,0,0,0,9.63,6,48.59,48.59,0,0,0,11,4,43.69,43.69,0,0,0,12.27,1.24A40.12,40.12,0,0,0,203.92,182a56.79,56.79,0,0,0,14-8.3,69.59,69.59,0,0,0-8.09-15.18,43.61,43.61,0,0,0-9.68-10.08,48,48,0,0,0-10.56-5.75,34.07,34.07,0,0,0-10.79-2.38,83.67,83.67,0,0,0-10.29.15,47.13,47.13,0,0,0-9.28,1.57c-2.83.8-5.3,1.57-7.4,2.29s-3.75,1.37-4.94,1.92l-1.78,1Q155.07,135.74,161.66,129.51Z"/><g class="cls-3"><path d="M104.72,185.63a69.77,69.77,0,0,1-13.33-11.54A97.76,97.76,0,0,1,80.67,160a100,100,0,0,1-8-15.77c-1.21-2.69-2-5.54-3-8.32-.49-1.39-.77-2.84-1.15-4.26s-.71-2.85-1-4.28c1.11,2.73,2,5.53,3.11,8.22s2.18,5.41,3.49,8l1.86,3.94,2,3.85c.65,1.3,1.39,2.55,2.13,3.8s1.43,2.53,2.25,3.74l2.36,3.66c.81,1.2,1.68,2.36,2.51,3.56s1.73,2.33,2.61,3.49,1.8,2.28,2.72,3.4A103.84,103.84,0,0,0,104.72,185.63Z"/></g><g class="cls-3"><path d="M134.41,139.13a70.61,70.61,0,0,1-5.8-11.44,91.93,91.93,0,0,1-4-12.23c-.52-2.08-.94-4.19-1.33-6.3-.19-1.06-.3-2.13-.46-3.19a31.28,31.28,0,0,1-.34-3.2l-.23-3.21,0-3.22,0-1.61.12-1.6c.08-1.07.18-2.14.29-3.2.1,1.07.19,2.13.26,3.19l.1,1.59.19,1.58.35,3.16.47,3.13c.67,4.17,1.46,8.31,2.52,12.4A191.55,191.55,0,0,0,134.41,139.13Z"/></g><g class="cls-3"><path d="M117.53,196.4c4.28,3.32,8.67,6.46,13.12,9.48s9,5.87,13.72,8.46c2.36,1.25,4.71,2.57,7.15,3.66,1.22.55,2.4,1.2,3.65,1.67s2.48,1,3.72,1.54a82.88,82.88,0,0,0,15.54,4.19,55.09,55.09,0,0,1-16.06-2.72,91.58,91.58,0,0,1-15-6.59,119.12,119.12,0,0,1-13.65-8.94A100.76,100.76,0,0,1,117.53,196.4Z"/></g><g class="cls-3"><path d="M146,152.71c4.31,1.9,8.62,3.7,13,5.41s8.74,3.29,13.17,4.71l3.33,1c1.11.35,2.24.62,3.36,1l1.68.49,1.69.41c1.13.26,2.25.58,3.39.83a137.54,137.54,0,0,0,13.83,2.31,64.87,64.87,0,0,1-14.12-.78,96.68,96.68,0,0,1-13.77-3.36,118.38,118.38,0,0,1-13.17-5.18A91.82,91.82,0,0,1,146,152.71Z"/></g><g class="cls-3"><path d="M162.68,121.91a92.27,92.27,0,0,1,11.54-10.27,99.68,99.68,0,0,1,13-8.43,68.28,68.28,0,0,1,14.39-5.87A37.41,37.41,0,0,1,217,96.17a48.49,48.49,0,0,0-15,2.67,70,70,0,0,0-7.07,2.77c-2.32,1-4.6,2.14-6.82,3.36-4.49,2.38-8.8,5.1-13,7.93S166.75,118.76,162.68,121.91Z"/></g></g></g></svg>